<svg width="52" height="52" viewBox="0 0 52 52" fill="none" xmlns="http://www.w3.org/2000/svg">
<rect width="52" height="52" rx="16" fill="#181818"/>
<path d="M36.1613 16.2636C36.1613 16.2636 38.4277 15.3798 38.2388 17.5261C38.1759 18.4099 37.6093 21.503 37.1686 24.8486L35.6576 34.7593C35.6576 34.7593 35.5317 36.2111 34.3985 36.4637C33.2652 36.7161 31.5655 35.5799 31.2506 35.3274C30.9988 35.138 26.529 32.2974 24.955 30.9086C24.5143 30.5299 24.0107 29.7724 25.018 28.8886L31.6284 22.5761C32.3839 21.8186 33.1394 20.0511 29.9915 22.1974L21.1776 28.1943C21.1776 28.1943 20.1703 28.8255 18.2817 28.2574L14.1895 26.9949C14.1895 26.9949 12.6785 26.048 15.2598 25.1011C21.5554 22.1342 29.299 19.1042 36.1613 16.2636Z" fill="#EBEBEB"/>
</svg>
