<svg width="92" height="92" viewBox="0 0 92 92" fill="none" xmlns="http://www.w3.org/2000/svg">
<path fill-rule="evenodd" clip-rule="evenodd" d="M44.6215 89.2198H47.4017V92H44.6215V89.2198ZM41.8182 86.4397H44.5983V89.2198H41.8182V86.4397ZM41.8182 89.2198H44.5983V92H41.8182V89.2198ZM39.038 89.2198H41.8182V92H39.038V89.2198ZM33.4546 89.2198H36.2347V92H33.4546V89.2198ZM30.6744 89.2198H33.4546V92H30.6744V89.2198ZM69.7124 86.4397H72.4926V89.2198H69.7124V86.4397ZM58.5455 89.2198H61.3256V92H58.5455V89.2198ZM55.7653 89.2198H58.5455V92H55.7653V89.2198ZM55.7653 86.4397H58.5455V89.2198H55.7653V86.4397ZM36.2579 86.4397H39.038V89.2198H36.2579V86.4397ZM66.9091 80.8562H69.6893V83.6364H66.9091V80.8562ZM39.038 75.2727H41.8182V78.0529H39.038V75.2727ZM33.4546 75.2727H36.2347V78.0529H33.4546V75.2727ZM41.8182 72.4926H44.5983V75.2727H41.8182V72.4926ZM36.2579 72.4926H39.038V75.2727H36.2579V72.4926ZM33.4546 66.9091H36.2347V69.6892H33.4546V66.9091ZM33.4546 69.7124H36.2347V72.4926H33.4546V69.7124ZM30.6744 69.7124H33.4546V72.4926H30.6744V69.7124ZM27.8942 69.7124H30.6744V72.4926H27.8942V69.7124ZM25.0909 72.4926H27.8711V75.2727H25.0909V72.4926ZM22.3108 72.4926H25.0909V75.2727H22.3108V72.4926ZM22.3108 69.7124H25.0909V72.4926H22.3108V69.7124ZM39.038 64.1289H41.8182V66.9091H39.038V64.1289ZM89.2198 64.1289H92V66.9091H89.2198V64.1289ZM89.2198 61.3488H92V64.1289H89.2198V61.3488ZM66.9091 61.3488H69.6893V64.1289H66.9091V61.3488ZM58.5455 66.9091H61.3256V69.6892H58.5455V66.9091ZM58.5455 64.1289H61.3256H64.1058V66.9091H61.3256H58.5455V64.1289ZM55.7653 64.1289H58.5455V66.9091H55.7653V64.1289ZM86.4397 55.7653H89.2198V58.5455H86.4397V55.7653ZM19.5306 55.7653H22.3108V58.5455H19.5306V55.7653ZM16.7273 55.7653H19.5074V58.5455H16.7273V55.7653ZM13.9471 55.7653H16.7273V58.5455H13.9471V55.7653ZM22.3108 52.9851H25.0909V55.7653H22.3108V52.9851ZM16.7273 50.1818H19.5074V52.962H16.7273V50.1818ZM13.9471 50.1818H16.7273V52.962H13.9471V50.1818ZM25.0909 47.4017H27.8711V50.1818H25.0909V47.4017ZM19.5306 47.4017H22.3108V50.1818H19.5306V47.4017ZM5.58349 50.1818H8.36364V52.962H5.58349V50.1818ZM8.36364 44.6215H11.1438V47.4017H8.36364V44.6215ZM8.36364 41.8182H11.1438V44.5983H8.36364V41.8182ZM5.58349 41.8182H8.36364V44.5983H5.58349V41.8182ZM8.36364 47.4017H11.1438V50.1818H8.36364V47.4017ZM5.58349 47.4017H8.36364V50.1818H5.58349V47.4017ZM16.7273 44.6215H19.5074V47.4017H16.7273V44.6215ZM89.2198 41.8182H92V44.5983H89.2198V41.8182ZM22.3108 44.6215H25.0909V47.4017H22.3108V44.6215ZM25.0909 41.8182V39.038H27.8711V41.8182V44.5983H25.0909V41.8182ZM22.3108 41.8182H25.0909V44.5983H22.3108V41.8182ZM13.9471 41.8182H16.7273V44.5983H13.9471V41.8182ZM0 44.6215H2.78017V47.4017H0V44.6215ZM0 41.8182H2.78017V44.5983H0V41.8182ZM22.3108 33.4545H25.0909V36.2347H22.3108V33.4545ZM25.0909 30.6744H27.8711V33.4545H25.0909V30.6744ZM22.3108 30.6744H25.0909V33.4545H22.3108V30.6744ZM19.5306 30.6744H22.3108V33.4545H19.5306V30.6744ZM19.5306 27.8942H22.3108V30.6744H19.5306V27.8942ZM16.7273 27.8942H19.5074V30.6744H16.7273V27.8942ZM19.5306 33.4545H22.3108V36.2347H19.5306V33.4545ZM16.7273 33.4545H19.5074V36.2347H16.7273V33.4545ZM16.7273 39.038H19.5074V41.8182H16.7273V39.038ZM11.167 39.038H13.9471V41.8182H11.167V39.038ZM2.80332 39.038H5.58349V41.8182H2.80332V39.038ZM86.4397 36.2579H89.2198V39.038H86.4397V36.2579ZM11.167 33.4545H13.9471V36.2347H11.167V33.4545ZM0 33.4545H2.78017V36.2347H0V33.4545ZM89.2198 33.4545H92V36.2347H89.2198V33.4545ZM89.2198 30.6744H92V33.4545H89.2198V30.6744ZM89.2198 27.8942H92V30.6744H89.2198V27.8942ZM86.4397 27.8942H89.2198V30.6744H86.4397V27.8942ZM86.4397 25.0909H89.2198V27.8711H86.4397V25.0909ZM86.4397 30.6744H89.2198V33.4545H86.4397V30.6744ZM83.6364 30.6744H86.4165V33.4545H83.6364V30.6744ZM75.2727 41.8182H78.0529V44.5983H75.2727V41.8182ZM75.2727 39.038H78.0529V41.8182H75.2727V39.038ZM80.8562 36.2579H83.6364V39.038H80.8562V36.2579ZM78.0761 36.2579H80.8562V39.038H78.0761V36.2579ZM75.2727 36.2579H78.0529V39.038H75.2727V36.2579ZM80.8562 33.4545H83.6364V36.2347H80.8562V33.4545ZM78.0761 33.4545H80.8562V36.2347H78.0761V33.4545ZM75.2727 33.4545H78.0529V36.2347H75.2727V33.4545ZM72.4926 33.4545H75.2727V36.2347H72.4926V33.4545ZM78.0761 30.6744H80.8562V33.4545H78.0761V30.6744ZM75.2727 30.6744H78.0529V33.4545H75.2727V30.6744ZM80.8562 27.8942H83.6364V30.6744H80.8562V27.8942ZM83.6364 22.3108H86.4165V25.0909H83.6364V22.3108ZM80.8562 22.3108H83.6364V25.0909H80.8562V22.3108ZM80.8562 25.0909H83.6364V27.8711H80.8562V25.0909ZM78.0761 25.0909H80.8562V27.8711H78.0761V25.0909ZM75.2727 25.0909H78.0529V27.8711H75.2727V25.0909ZM75.2727 27.8942H78.0529V30.6744H75.2727V27.8942ZM72.4926 27.8942H75.2727V30.6744H72.4926V27.8942ZM72.4926 30.6744H75.2727V33.4545H72.4926V30.6744ZM69.7124 30.6744H72.4926V33.4545H69.7124V30.6744ZM13.9471 30.6744H16.7273V33.4545H13.9471V30.6744ZM5.58349 36.2579H8.36364V39.038H5.58349V36.2579ZM5.58349 33.4545H8.36364V36.2347H5.58349V33.4545ZM5.58349 27.8942H8.36364V30.6744H5.58349V27.8942ZM5.58349 25.0909H8.36364V27.8711H5.58349V25.0909ZM2.80332 25.0909H5.58349V27.8711H2.80332V25.0909ZM5.58349 30.6744H8.36364V33.4545H5.58349V30.6744ZM2.80332 30.6744H5.58349V33.4545H2.80332V30.6744ZM0 27.8942H2.78017V30.6744H0V27.8942ZM69.7124 25.0909H72.4926V27.8711H69.7124V25.0909ZM25.0909 25.0909H27.8711V27.8711H25.0909V25.0909ZM19.5306 22.3108H22.3108V25.0909H19.5306V22.3108ZM16.7273 22.3108H19.5074V25.0909H16.7273V22.3108ZM11.167 25.0909H13.9471V27.8711H11.167V25.0909ZM11.167 22.3108H13.9471V25.0909H11.167V22.3108ZM8.36364 22.3108H11.1438V25.0909H8.36364V22.3108ZM66.9091 22.3108H69.6893V25.0909H66.9091V22.3108ZM66.9091 19.5306H69.6893V22.3108H66.9091V19.5306ZM66.9091 16.7273H69.6893V19.5074H66.9091V16.7273ZM61.3488 16.7273H64.1289V19.5074H61.3488V16.7273ZM44.6215 16.7273H47.4017V19.5074H44.6215V16.7273ZM44.6215 13.9471H47.4017V16.7273H44.6215V13.9471ZM64.1289 13.9471H66.9091V16.7273H64.1289V13.9471ZM66.9091 11.167H69.6893V13.9471H66.9091V11.167ZM64.1289 8.36364H66.9091V11.1438H64.1289V8.36364ZM64.1289 5.58348H66.9091V8.36364H64.1289V5.58348ZM64.1289 11.167H66.9091V13.9471H64.1289V11.167ZM61.3488 11.167H64.1289V13.9471H61.3488V11.167ZM36.2579 13.9471H39.038V16.7273H36.2579V13.9471ZM39.038 11.167H41.8182V13.9471H39.038V11.167ZM36.2579 11.167H39.038V13.9471H36.2579V11.167ZM30.6744 13.9471H33.4546V16.7273H30.6744V13.9471ZM30.6744 11.167H33.4546V13.9471H30.6744V11.167ZM25.0909 13.9471H27.8711V16.7273H25.0909V13.9471ZM25.0909 11.167H27.8711V13.9471H25.0909V11.167ZM27.8942 8.36364H30.6744V11.1438H27.8942V8.36364ZM22.3108 8.36364H25.0909V11.1438H22.3108V8.36364ZM25.0909 5.58348H27.8711V8.36364H25.0909V5.58348ZM22.3108 5.58348H25.0909V8.36364H22.3108V5.58348ZM47.4017 11.167H50.1818V13.9471H47.4017V11.167ZM58.5455 8.36364H61.3256V11.1438H58.5455V8.36364ZM58.5455 2.80332H61.3256V5.58348H58.5455V2.80332ZM58.5455 5.58348H61.3256V8.36364H58.5455V5.58348ZM55.7653 5.58348H58.5455V8.36364H55.7653V5.58348ZM55.7653 8.36364H58.5455V11.1438H55.7653V8.36364ZM52.9851 8.36364H55.7653V11.1438H52.9851V8.36364ZM50.1818 8.36364H52.962V11.1438H50.1818V8.36364ZM47.4017 5.58348H50.1818V8.36364H47.4017V5.58348ZM47.4017 8.36364H50.1818V11.1438H47.4017V8.36364ZM44.6215 8.36364H47.4017V11.1438H44.6215V8.36364ZM41.8182 8.36364H44.5983V11.1438H41.8182V8.36364ZM41.8182 5.58348H44.5983V8.36364H41.8182V5.58348ZM39.038 5.58348H41.8182V8.36364H39.038V5.58348ZM36.2579 5.58348H39.038V8.36364H36.2579V5.58348ZM44.6215 2.80332H47.4017V5.58348H44.6215V2.80332ZM41.8182 2.80332H44.5983V5.58348H41.8182V2.80332ZM39.038 2.80332H41.8182V5.58348H39.038V2.80332ZM36.2579 2.80332H39.038V5.58348H36.2579V2.80332ZM66.9091 0H69.6893V2.78016H66.9091V0ZM61.3488 0H64.1289V2.78016H61.3488V0ZM52.9851 2.80332H55.7653V5.58348H52.9851V2.80332ZM52.9851 0H55.7653V2.78016H52.9851V0ZM47.4017 0H50.1818V2.78016H47.4017V0ZM30.6744 0H33.4546V2.78016H30.6744V0ZM22.3108 16.7273H25.0909V19.5074H22.3108V16.7273ZM44.6215 25.0909H47.4017H50.1818H52.962V27.8711H50.1818H47.4017H44.6215V25.0909ZM36.2579 25.0909H39.038V27.8711H36.2579V25.0909ZM47.4017 22.3108H50.1818V25.0909H47.4017V22.3108ZM44.6215 22.3108H47.4017V25.0909H44.6215V22.3108ZM41.8182 22.3108H44.5983V25.0909H41.8182V22.3108ZM36.2579 22.3108H39.038V25.0909H36.2579V22.3108ZM33.4546 22.3108H36.2347V25.0909H33.4546V22.3108ZM30.6744 22.3108H33.4546V25.0909H30.6744V22.3108ZM27.8942 22.3108H30.6744V25.0909H27.8942V22.3108ZM41.8182 19.5306H44.5983V22.3108H41.8182V19.5306ZM39.038 16.7273H41.8182V19.5074H39.038V16.7273ZM39.038 19.5306H41.8182V22.3108H39.038V19.5306ZM36.2579 19.5306H39.038V22.3108H36.2579V19.5306ZM33.4546 16.7273H36.2347V19.5074H33.4546V16.7273ZM33.4546 19.5306H36.2347V22.3108H33.4546V19.5306ZM30.6744 19.5306H33.4546V22.3108H30.6744V19.5306ZM27.8942 16.7273H30.6744V19.5074H27.8942V16.7273ZM27.8942 19.5306H30.6744V22.3108H27.8942V19.5306ZM25.0909 19.5306H27.8711V22.3108H25.0909V19.5306ZM64.1289 27.8942H66.9091V30.6744H64.1289V27.8942ZM55.7653 25.0909H58.5455H61.3256H64.1058H66.8859V27.8711H64.1058H61.3256H58.5455H55.7653V25.0909ZM61.3488 22.3108H64.1289V25.0909H61.3488V22.3108ZM58.5455 22.3108H61.3256V25.0909H58.5455V22.3108ZM55.7653 22.3108H58.5455V25.0909H55.7653V22.3108ZM52.9851 22.3108H55.7653V25.0909H52.9851V22.3108ZM55.7653 16.7273H58.5455V19.5074H55.7653V16.7273ZM58.5455 13.9471H61.3256V16.7273H58.5455V13.9471ZM55.7653 13.9471H58.5455V16.7273H55.7653V13.9471ZM55.7653 19.5306H58.5455V22.3108H55.7653V19.5306ZM52.9851 19.5306H55.7653V22.3108H52.9851V19.5306ZM50.1818 19.5306H52.962V22.3108H50.1818V19.5306ZM50.1818 16.7273H52.962V19.5074H50.1818V16.7273ZM50.1818 13.9471H52.962V16.7273H50.1818V13.9471ZM66.9091 33.4545H69.6893V36.2347H66.9091V33.4545ZM64.1289 33.4545H66.9091V36.2347V39.0149H64.1289V36.2347V33.4545ZM75.2727 64.1289H78.0529V66.9091H75.2727V64.1289ZM78.0761 61.3488H80.8562V64.1289H78.0761V61.3488ZM75.2727 61.3488H78.0529V64.1289H75.2727V61.3488ZM72.4926 61.3488H75.2727V64.1289H72.4926V61.3488ZM83.6364 58.5455H86.4165V61.3256H83.6364V58.5455ZM80.8562 58.5455H83.6364V61.3256H80.8562V58.5455ZM78.0761 58.5455H80.8562V61.3256H78.0761V58.5455ZM75.2727 58.5455H78.0529V61.3256H75.2727V58.5455ZM72.4926 58.5455H75.2727V61.3256H72.4926V58.5455ZM69.7124 58.5455H72.4926V61.3256H69.7124V58.5455ZM80.8562 55.7653H83.6364V58.5455H80.8562V55.7653ZM69.7124 55.7653H72.4926V58.5455H69.7124V55.7653ZM66.9091 55.7653H69.6893V58.5455H66.9091V55.7653ZM64.1289 55.7653H66.9091V58.5455H64.1289V55.7653ZM89.2198 52.9851H92V55.7653H89.2198V52.9851ZM83.6364 52.9851H86.4165V55.7653H83.6364V52.9851ZM80.8562 52.9851H83.6364V55.7653H80.8562V52.9851ZM75.2727 52.9851H78.0529V55.7653H75.2727V52.9851ZM72.4926 52.9851H75.2727V55.7653H72.4926V52.9851ZM66.9091 52.9851H69.6893V55.7653H66.9091V52.9851ZM89.2198 50.1818H92V52.962H89.2198V50.1818ZM86.4397 47.4017H89.2198V50.1818H86.4397V47.4017ZM86.4397 50.1818H89.2198V52.962H86.4397V50.1818ZM83.6364 50.1818H86.4165V52.962H83.6364V50.1818ZM80.8562 50.1818H83.6364V52.962H80.8562V50.1818ZM78.0761 50.1818H80.8562V52.962H78.0761V50.1818ZM72.4926 50.1818H75.2727V52.962H72.4926V50.1818ZM69.7124 50.1818H72.4926V52.962H69.7124V50.1818ZM80.8562 47.4017H83.6364V50.1818H80.8562V47.4017ZM83.6364 44.6215H86.4165V47.4017H83.6364V44.6215ZM80.8562 41.8182H83.6364V44.5983H80.8562V41.8182ZM80.8562 44.6215H83.6364V47.4017H80.8562V44.6215ZM78.0761 44.6215H80.8562V47.4017H78.0761V44.6215ZM78.0761 47.4017H80.8562V50.1818H78.0761V47.4017ZM75.2727 47.4017H78.0529V50.1818H75.2727V47.4017ZM72.4926 47.4017H75.2727V50.1818H72.4926V47.4017ZM66.9091 47.4017H69.6893V50.1818H66.9091V47.4017ZM72.4926 44.6215H75.2727V47.4017H72.4926V44.6215ZM69.7124 44.6215H72.4926V47.4017H69.7124V44.6215ZM69.7124 39.038H72.4926V41.8182H69.7124V39.038ZM69.7124 36.2579H72.4926V39.038H69.7124V36.2579ZM69.7124 41.8182H72.4926V44.5983H69.7124V41.8182ZM66.9091 41.8182H69.6893V44.5983H66.9091V41.8182ZM66.9091 44.6215H69.6893V47.4017H66.9091V44.6215ZM64.1289 44.6215H66.9091V47.4017H64.1289V44.6215ZM66.9091 50.1818H69.6893V52.962H66.9091V50.1818ZM64.1289 52.9851H66.9091V55.7653H64.1289V52.9851V50.1818H66.9091V52.962H64.1289V52.9851ZM75.2727 80.8562H78.0529V83.6364H75.2727V80.8562ZM78.0761 83.6364H80.8562V86.4165H78.0761V83.6364ZM89.2198 86.4397H92V89.2198H89.2198V86.4397ZM86.4397 86.4397H89.2198V89.2198H86.4397V86.4397ZM83.6364 86.4397H86.4165V89.2198H83.6364V86.4397ZM89.2198 83.6364H92V86.4165H89.2198V83.6364ZM86.4397 83.6364H89.2198V86.4165H86.4397V83.6364ZM83.6364 83.6364H86.4165V86.4165H83.6364V83.6364ZM86.4397 80.8562H89.2198V83.6364H86.4397V80.8562ZM83.6364 80.8562H86.4165V83.6364H83.6364V80.8562ZM80.8562 80.8562H83.6364V83.6364H80.8562V80.8562ZM89.2198 78.076H92V80.8562H89.2198V78.076ZM86.4397 78.076H89.2198V80.8562H86.4397V78.076ZM80.8562 78.076H83.6364V80.8562H80.8562V78.076ZM86.4397 75.2727H89.2198V78.0529H86.4397V75.2727ZM83.6364 72.4926H86.4165V75.2727H83.6364V72.4926ZM83.6364 69.7124H86.4165V72.4926H83.6364V69.7124ZM80.8562 69.7124H83.6364V72.4926H80.8562V69.7124ZM80.8562 66.9091H83.6364V69.6892H80.8562V66.9091ZM83.6364 64.1289H86.4165V66.9091H83.6364V64.1289ZM80.8562 64.1289H83.6364V66.9091H80.8562V64.1289ZM83.6364 75.2727H86.4165V78.0529H83.6364V75.2727ZM80.8562 75.2727H83.6364V78.0529H80.8562V75.2727ZM83.6364 89.2198H86.4165V92H83.6364V89.2198ZM80.8562 89.2198H83.6364V92H80.8562V89.2198ZM78.0761 89.2198H80.8562V92H78.0761V89.2198ZM72.4926 89.2198H75.2727V92H72.4926V89.2198ZM61.3488 86.4397H64.1289V89.2198H61.3488V86.4397ZM64.1289 83.6364H66.9091V86.4165H64.1289V83.6364ZM61.3488 83.6364H64.1289V86.4165H61.3488V83.6364ZM58.5455 83.6364H61.3256V86.4165H58.5455V83.6364ZM58.5455 80.8562H61.3256V83.6364H58.5455V80.8562ZM58.5455 78.076H61.3256V80.8562H58.5455V78.076ZM52.9851 80.8562H55.7653V83.6364H52.9851V80.8562ZM52.9851 83.6364H55.7653V86.4165H52.9851V83.6364ZM50.1818 83.6364H52.962V86.4165H50.1818V83.6364ZM47.4017 83.6364H50.1818V86.4165H47.4017V83.6364ZM30.6744 83.6364H33.4546V86.4165H30.6744V83.6364ZM27.8942 83.6364H30.6744V86.4165H27.8942V83.6364ZM64.1289 78.076H66.9091V80.8562H64.1289V78.076ZM50.1818 78.076H52.962V80.8562H50.1818V78.076ZM47.4017 78.076H50.1818V80.8562H47.4017V78.076ZM64.1289 75.2727H66.9091V78.0529H64.1289V75.2727ZM64.1289 72.4926H66.9091V75.2727H64.1289V72.4926ZM61.3488 72.4926H64.1289V75.2727H61.3488V72.4926ZM58.5455 72.4926H61.3256V75.2727H58.5455V72.4926ZM55.7653 72.4926H58.5455V75.2727H55.7653V72.4926ZM50.1818 72.4926H52.962V75.2727H50.1818V72.4926ZM47.4017 72.4926H50.1818V75.2727H47.4017V72.4926ZM55.7653 69.7124H58.5455V72.4926H55.7653V69.7124ZM52.9851 69.7124H55.7653V72.4926H52.9851V69.7124ZM50.1818 69.7124H52.962V72.4926H50.1818V69.7124ZM47.4017 69.7124H50.1818V72.4926H47.4017V69.7124ZM44.6215 69.7124H47.4017V72.4926H44.6215V69.7124ZM50.1818 66.9091H52.962V69.6892H50.1818V66.9091ZM47.4017 66.9091H50.1818V69.6892H47.4017V66.9091ZM44.6215 66.9091H47.4017V69.6892H44.6215V66.9091ZM50.1818 64.1289H52.962V66.9091H50.1818V64.1289ZM47.4017 64.1289H50.1818V66.9091H47.4017V64.1289ZM44.6215 64.1289H47.4017V66.9091H44.6215V64.1289ZM30.6744 64.1289H33.4546V66.9091H30.6744V64.1289ZM27.8942 64.1289H30.6744V66.9091H27.8942V64.1289ZM25.0909 64.1289V61.3488V58.5686H27.8711V61.3488V64.1289V66.9091H25.0909V64.1289ZM22.3108 64.1289H25.0909V66.9091H22.3108V64.1289ZM19.5306 64.1289H22.3108V66.9091H19.5306V64.1289ZM11.167 64.1289H13.9471V66.9091H11.167V64.1289ZM8.36364 64.1289H11.1438V66.9091H8.36364V64.1289ZM19.5306 61.3488H22.3108V64.1289H19.5306V61.3488ZM16.7273 61.3488H19.5074V64.1289H16.7273V61.3488ZM13.9471 61.3488H16.7273V64.1289H13.9471V61.3488ZM11.167 61.3488H13.9471V64.1289H11.167V61.3488ZM11.167 58.5455H13.9471V61.3256H11.167V58.5455ZM8.36364 58.5455H11.1438V61.3256H8.36364V58.5455ZM11.167 52.9851H13.9471V55.7653H11.167V52.9851ZM8.36364 52.9851H11.1438V55.7653H8.36364V52.9851ZM8.36364 55.7653H11.1438V58.5455H8.36364V55.7653ZM5.58349 55.7653H8.36364V58.5455H5.58349V55.7653ZM8.36364 61.3488H11.1438V64.1289H8.36364V61.3488ZM5.58349 61.3488H8.36364V64.1289H5.58349V61.3488ZM19.5306 66.9091H22.3108V69.6892H19.5306V66.9091ZM16.7273 66.9091H19.5074V69.6892H16.7273V66.9091ZM13.9471 66.9091H16.7273V69.6892H13.9471V66.9091ZM47.4017 75.2727H50.1818V78.0529H47.4017V75.2727ZM44.6215 75.2727H47.4017V78.0529H44.6215V75.2727ZM47.4017 80.8562H50.1818V83.6364H47.4017V80.8562ZM44.6215 80.8562H47.4017V83.6364H44.6215V80.8562ZM41.8182 80.8562H44.5983V83.6364H41.8182V80.8562ZM39.038 80.8562H41.8182V83.6364H39.038V80.8562ZM36.2579 78.076H39.038V80.8562H36.2579V78.076ZM36.2579 80.8562H39.038V83.6364H36.2579V80.8562ZM33.4546 80.8562H36.2347V83.6364H33.4546V80.8562ZM30.6744 78.076H33.4546V80.8562H30.6744V78.076ZM30.6744 80.8562H33.4546V83.6364H30.6744V80.8562ZM27.8942 80.8562H30.6744V83.6364H27.8942V80.8562ZM25.0909 80.8562H27.8711V83.6364H25.0909V80.8562ZM22.3108 80.8562H25.0909V83.6364H22.3108V80.8562ZM22.3108 78.076H25.0909V80.8562H22.3108V78.076ZM27.8942 86.4397H30.6744V89.2198H27.8942V86.4397ZM25.0909 86.4397H27.8711V89.2198H25.0909V86.4397ZM5.58349 66.9091H8.36364V69.6892H5.58349V66.9091ZM2.80332 66.9091H5.58349V69.6892H2.80332V66.9091ZM0 66.9091H2.78017V69.6892H0V66.9091ZM0 64.1289H2.78017V66.9091H0V64.1289ZM0 61.3488H2.78017V64.1289H0V61.3488ZM2.80332 58.5455H5.58349V61.3256H2.80332V58.5455ZM0 58.5455H2.78017V61.3256H0V58.5455ZM0 55.7653H2.78017V58.5455H0V55.7653ZM2.80332 52.9851H5.58349V55.7653H2.80332V52.9851ZM0 52.9851H2.78017V55.7653H0V52.9851ZM66.9091 89.2198H69.6893V92H66.9091V89.2198ZM64.1289 89.2198H66.9091V92H64.1289V89.2198Z" fill="black"/>
<path fill-rule="evenodd" clip-rule="evenodd" d="M5.58349 75.2727H2.80332V89.2198H16.7504V75.2727H5.58349ZM0 72.4926H19.5074V92H0V72.4926ZM72.4926 69.7124H69.7124V78.076H78.0761V69.7124H72.4926ZM66.9091 66.9091H80.8562V80.8562H66.9091V66.9091ZM78.0761 2.80332H75.2959V16.7504H89.243V2.80332H78.0761ZM72.4926 0H92V19.5074H72.4926V0ZM5.58349 2.80332H2.80332V16.7504H16.7504V2.80332H5.58349ZM0 0H19.5074V19.5074H0V0Z" fill="black"/>
<path fill-rule="evenodd" clip-rule="evenodd" d="M5.60999 77.8618H13.9658V86.3207H5.60999V77.8618ZM72.4564 72.2147H75.234V75.0265H72.4564V72.2147ZM78.0347 4.54297H86.3905V13.0019H78.0347V4.54297ZM5.60999 4.54297H13.9658V13.0019H5.60999V4.54297Z" fill="black"/>
<path d="M34.9385 36.5831L42.71 32.9385L58.2531 34.3023V37.2179L50.4815 40.8625L50.4582 34.8196L42.71 34.1377V44.5071L48.0777 41.9912V43.3079L34.9385 49.4684V36.5831ZM45.0905 48.6925L58.2531 42.5085V55.4173L50.4815 59.0619L34.9385 57.6982V54.7825L42.71 51.1379V57.1809L50.4815 57.8627V47.4933L45.0905 50.0328V48.6925ZM31.4144 52.4782L61.7071 38.2525V39.5693L31.4144 53.7949V52.4782Z" fill="black"/>
</svg>
